<svg width="200" height="200" viewBox="0 0 200 200" fill="none" xmlns="http://www.w3.org/2000/svg">
<path d="M103.493 88.8889L155.556 107.483V183.333C155.556 184.807 154.97 186.22 153.928 187.262C152.887 188.304 151.473 188.889 150 188.889H127.778C126.304 188.889 124.891 188.304 123.849 187.262C122.808 186.22 122.222 184.807 122.222 183.333V144.444H66.6667V183.333C66.6667 184.807 66.0814 186.22 65.0395 187.262C63.9976 188.304 62.5845 188.889 61.1111 188.889H38.8889C37.4155 188.889 36.0024 188.304 34.9605 187.262C33.9187 186.22 33.3333 184.807 33.3333 183.333V109.059C20.4306 104.458 11.1111 92.2431 11.1111 77.7778C11.1111 74.8309 12.2817 72.0048 14.3655 69.921C16.4492 67.8373 19.2754 66.6667 22.2222 66.6667C25.1691 66.6667 27.9952 67.8373 30.079 69.921C32.1627 72.0048 33.3333 74.8309 33.3333 77.7778C33.3388 80.7229 34.5112 83.5459 36.5938 85.6284C38.6763 87.711 41.4993 88.8834 44.4444 88.8889H103.493ZM188.889 50V61.1111C188.889 67.0048 186.548 72.6571 182.38 76.8246C178.213 80.9921 172.56 83.3333 166.667 83.3333H155.556V95.6875L111.111 79.816V27.7778C111.111 22.8299 117.09 20.3507 120.594 23.8507L130.066 33.3333H148.687C152.476 33.3333 156.934 36.0833 158.625 39.4757L161.111 44.4445H183.333C184.807 44.4445 186.22 45.0298 187.262 46.0716C188.304 47.1135 188.889 48.5266 188.889 50ZM150 50C150 48.9012 149.674 47.8271 149.064 46.9135C148.453 45.9999 147.586 45.2878 146.57 44.8673C145.555 44.4469 144.438 44.3368 143.361 44.5512C142.283 44.7656 141.293 45.2947 140.516 46.0716C139.739 46.8486 139.21 47.8385 138.996 48.9162C138.781 49.9938 138.891 51.1109 139.312 52.126C139.732 53.1412 140.444 54.0088 141.358 54.6193C142.272 55.2297 143.346 55.5556 144.444 55.5556C145.918 55.5556 147.331 54.9702 148.373 53.9284C149.415 52.8865 150 51.4734 150 50Z" fill="white"/>
<path d="M66 22H78V78H66V22Z" fill="white"/>
<path d="M66 22H78V78H66V22Z" fill="white"/>
<path d="M44 56V44H100V56H44Z" fill="white"/>
<path d="M44 56V44H100V56H44Z" fill="white"/>
</svg>
